<svg xmlns="http://www.w3.org/2000/svg" height="800" width="1200" xml:space="preserve" y="0" x="0" id="Layer_1" version="1.0" viewBox="-53.865 -37.45 466.83 224.7"><style id="style14486" type="text/css">.st0{fill:#008bff}.st1,.st2{fill:#333e48}.st2{fill-rule:evenodd;clip-rule:evenodd}</style><g transform="translate(0 .1)" id="g14544"><g id="g14496"><path id="path14488" d="M54.6 35.5L30.3 30c-4.9-1.1-6.5-2.5-6.5-5 0-1.9 1.5-3.5 6-3.5h44.6V8.4c0-3.7-3-6.7-6.7-6.7h-39C9.9 1.7 0 12.6 0 26.6 0 39 7.6 46.5 22.8 49.9l24.3 5.4c4.9 1.1 6.5 2.5 6.5 5 0 1.9-1.5 3.5-6 3.5H1.5v13.1c0 3.7 3 6.7 6.7 6.7h37.9c22.3 0 31.3-10.9 31.3-23.8 0-13.4-7.7-20.9-22.8-24.3" class="st0"/><path id="path14490" d="M243.7 1.3c-3.8 0-6.9 3-6.9 6.7v40c0 8.9-7.6 16-16.8 15.5-8.4-.5-14.8-7.8-14.8-16.1V8c0-3.7-3.1-6.7-6.9-6.7h-14s-.1 0-.1.1V47c0 19.6 15.5 36.3 35.4 37 20.9.7 38.1-15.7 38.1-36.1V1.3s0-.1-.1-.1h-13.9z" class="st0"/><path id="path14492" d="M129.9 64.3c-11.9 0-21.6-9.7-21.6-21.6 0-11.9 9.7-21.6 21.6-21.6 11.9 0 21.6 9.7 21.6 21.6 0 11.9-9.7 21.6-21.6 21.6m0-64.1c-23.5 0-42.6 19.1-42.6 42.6s19.1 42.6 42.6 42.6 42.6-19.1 42.6-42.6S153.3.2 129.9.2" class="st0"/><path id="path14494" d="M333 48.3l-8.1-8.1-15.2 14.7 8.5 8.5c-1.9.5-3.9.8-6 .8-11.9 0-21.6-9.7-21.6-21.6 0-11.9 9.7-21.6 21.6-21.6 11.9 0 21.6 9.7 21.6 21.6 0 1.9-.3 3.8-.8 5.7m15.9 15.8c3.7-6.3 5.9-13.7 5.9-21.6 0-23.5-19.1-42.6-42.6-42.6S269.6 19 269.6 42.5s19.1 42.6 42.6 42.6c8 0 15.4-2.2 21.8-6l4.2 4.2c2.7 2.7 7.1 2.7 9.8 0l10-10v-.1z" class="st0"/></g><g id="g14542"><g id="g14502"><path id="path14498" d="M17.2 134.1h-3.4l-.3-2.2c-1 .9-2.1 1.5-3.3 2-1.2.5-2.4.7-3.6.7-2 0-3.5-.6-4.7-1.7-1.2-1.1-1.8-2.6-1.8-4.5 0-2 .7-3.6 2.2-4.9 1.4-1.2 3.4-1.8 5.8-1.8 1.6 0 3.4.2 5.2.7v-2.8c0-1.5-.3-2.6-1-3.2-.7-.6-1.8-.9-3.5-.9-2.4 0-4.8.4-7.3 1.3V114c1-.5 2.2-.9 3.7-1.2 1.4-.3 2.9-.4 4.4-.4 2.6 0 4.6.5 5.8 1.6 1.3 1.1 1.9 2.8 1.9 5v15.1zm-4-9c-1.4-.4-2.9-.5-4.4-.5-3.1 0-4.7 1.2-4.7 3.6 0 1.1.3 1.9.9 2.4.6.6 1.4.9 2.5.9 1.9 0 3.8-.7 5.7-2.1z" class="st1"/><path id="path14500" d="M41.7 134.1h-4.1V120c0-1.5-.3-2.6-.9-3.2-.6-.7-1.5-1-2.8-1-2.2 0-4.3.7-6.5 2.1v16.3h-4.1v-21.1h3.5l.4 2.3c2.6-2 5.4-3 8.3-3 2 0 3.6.5 4.6 1.6 1.1 1.1 1.6 2.6 1.6 4.6z" class="st1"/></g><g id="g14518"><path id="path14504" d="M205.2 133.3c-1.6.8-3.5 1.2-5.6 1.2-3.3 0-5.8-.9-7.5-2.8-1.7-1.9-2.6-4.6-2.6-8.1s.9-6.3 2.7-8.2c1.8-1.9 4.3-2.9 7.6-2.9 1.9 0 3.6.4 5.2 1.2v3c-1.6-.5-3.1-.7-4.7-.7-2.3 0-4 .6-5 1.8-1 1.2-1.5 3.1-1.5 5.6v.5c0 2.5.5 4.4 1.6 5.6 1 1.2 2.7 1.8 4.9 1.8 1.5 0 3.1-.3 4.9-.8z" class="st1"/><path id="path14506" d="M225.6 131.7c-1.8 2-4.2 3-7.4 3s-5.6-1-7.4-3c-1.8-2-2.7-4.7-2.7-8.2 0-3.5.9-6.2 2.7-8.2 1.8-2 4.2-3 7.4-3s5.6 1 7.4 3c1.8 2 2.7 4.7 2.7 8.2 0 3.5-.9 6.2-2.7 8.2zm-7.4-.4c3.9 0 5.9-2.6 5.9-7.9 0-5.2-2-7.8-5.9-7.8-3.9 0-5.9 2.6-5.9 7.8 0 5.3 2 7.9 5.9 7.9z" class="st1"/><path id="path14508" d="M264.5 134.1h-4.1v-14.3c0-1.4-.3-2.4-.8-3.1-.5-.7-1.4-1-2.5-1-2 0-4.1.6-6.1 1.9v16.5h-4.1v-14.3c0-1.4-.3-2.4-.8-3.1-.5-.7-1.4-1-2.5-1-2.1 0-4.1.6-6.1 1.8v16.6h-4.1V113h3.5l.4 2.1c2.7-1.8 5.3-2.8 7.8-2.8 2.6 0 4.3 1 5.2 3 2.7-2 5.5-3 8.2-3 1.9 0 3.4.5 4.4 1.6 1 1.1 1.5 2.6 1.5 4.6v15.6z" class="st1"/><path id="path14510" d="M274.7 142.6h-4.1v-29.7h3.5l.4 2.2c2.1-1.9 4.5-2.8 7-2.8 2.7 0 4.8 1 6.4 2.9 1.6 2 2.3 4.6 2.3 8 0 3.4-.8 6.2-2.5 8.2-1.6 2.1-3.8 3.1-6.5 3.1-2.5 0-4.7-.8-6.5-2.5zm0-13.4c1.8 1.3 3.6 2 5.5 2 3.8 0 5.7-2.6 5.7-7.7 0-2.6-.5-4.6-1.4-5.9-.9-1.3-2.4-1.9-4.3-1.9-2 0-3.8.6-5.6 1.9v11.6z" class="st1"/><path id="path14512" d="M311 134.1h-3.4l-.3-2.2c-1 .9-2.1 1.5-3.3 2-1.2.5-2.4.7-3.6.7-2 0-3.5-.6-4.7-1.7-1.2-1.1-1.8-2.6-1.8-4.5 0-2 .7-3.6 2.2-4.9 1.4-1.2 3.4-1.8 5.8-1.8 1.6 0 3.4.2 5.2.7v-2.8c0-1.5-.3-2.6-1-3.2-.7-.6-1.8-.9-3.5-.9-2.4 0-4.8.4-7.3 1.3V114c1-.5 2.2-.9 3.7-1.2 1.4-.3 2.9-.4 4.4-.4 2.6 0 4.6.5 5.8 1.6 1.3 1.1 1.9 2.8 1.9 5v15.1zm-3.9-9c-1.4-.4-2.9-.5-4.4-.5-3.1 0-4.7 1.2-4.7 3.6 0 1.1.3 1.9.9 2.4.6.6 1.4.9 2.5.9 1.9 0 3.8-.7 5.7-2.1z" class="st1"/><path id="path14514" d="M335.6 134.1h-4.1V120c0-1.5-.3-2.6-.9-3.2-.6-.6-1.5-1-2.8-1-2.2 0-4.3.7-6.5 2.1v16.3h-4.1v-21.1h3.5l.4 2.3c2.6-2 5.4-3 8.3-3 2 0 3.6.5 4.6 1.6 1.1 1.1 1.6 2.6 1.6 4.6z" class="st1"/><path id="path14516" d="M349.5 137.8c-.7 1.9-1.6 3.3-2.6 4.1-1 .8-2.3 1.2-3.9 1.2-1.2 0-2.2-.2-3.2-.6v-3c.7.2 1.5.3 2.4.3 1 0 1.8-.3 2.4-.8.6-.5 1.1-1.4 1.6-2.7l.8-2.1-8.5-21.3h4.4l6.1 17.3 5.9-17.3h4.2z" class="st1"/></g><g id="g14540"><g id="g14524"><path id="path14520" d="M130.6 141.6c-7.2 5.3-17.6 8.1-26.6 8.1-12.6 0-23.9-4.7-32.5-12.4-.7-.6-.1-1.4.7-1 9.3 5.4 20.7 8.6 32.5 8.6 8 0 16.7-1.7 24.8-5.1 1.2-.4 2.3.9 1.1 1.8z" class="st2"/><path id="path14522" d="M133.6 138.2c-.9-1.2-6.1-.6-8.4-.3-.7.1-.8-.5-.2-1 4.1-2.9 10.9-2.1 11.6-1.1.8 1-.2 7.7-4.1 11-.6.5-1.2.2-.9-.4.9-2.2 2.9-7 2-8.2z" class="st2"/></g><g id="g14538"><path id="path14526" d="M125.4 116.5v-2.8c0-.4.3-.7.7-.7h12.6c.4 0 .7.3.7.7v2.4c0 .4-.3.9-.9 1.8l-6.5 9.3c2.4-.1 5 .3 7.2 1.5.5.3.6.7.7 1.1v3c0 .4-.5.9-.9.6-3.9-2-9-2.3-13.3 0-.4.2-.9-.2-.9-.7V130c0-.5 0-1.2.5-1.9l7.6-10.8h-6.6c-.6-.1-.9-.3-.9-.8z" class="st2"/><path id="path14528" d="M79.4 134.1h-3.8c-.4 0-.7-.3-.7-.6v-19.7c0-.4.3-.7.7-.7h3.6c.4 0 .7.3.7.7v2.6h.1c.9-2.5 2.7-3.6 5-3.6 2.4 0 3.9 1.2 5 3.6.9-2.5 3-3.6 5.3-3.6 1.6 0 3.4.7 4.4 2.2 1.2 1.7 1 4.1 1 6.2v12.4c0 .4-.3.7-.7.7h-3.8c-.4 0-.7-.3-.7-.7v-10.4c0-.8.1-2.9-.1-3.7-.3-1.3-1.1-1.7-2.3-1.7-.9 0-1.9.6-2.3 1.6-.4 1-.4 2.6-.4 3.8v10.4c0 .4-.3.7-.7.7h-3.8c-.4 0-.7-.3-.7-.7v-10.4c0-2.2.4-5.4-2.4-5.4s-2.6 3.1-2.6 5.4v10.4c0 .2-.4.5-.8.5z" class="st2"/><path id="path14530" d="M150.2 112.7c5.7 0 8.8 4.9 8.8 11.1 0 6-3.4 10.8-8.8 10.8-5.6 0-8.6-4.9-8.6-11 0-6.2 3.1-10.9 8.6-10.9zm.1 4c-2.8 0-3 3.8-3 6.2 0 2.4 0 7.5 3 7.5s3.1-4.1 3.1-6.7c0-1.7-.1-3.6-.6-5.2-.5-1.3-1.3-1.8-2.5-1.8z" class="st2"/><path id="path14532" d="M166.4 134.1h-3.8c-.4 0-.7-.3-.7-.7v-19.7c0-.4.3-.6.7-.6h3.6c.3 0 .6.2.7.6v3h.1c1.1-2.7 2.6-4 5.2-4 1.7 0 3.4.6 4.5 2.3 1 1.6 1 4.2 1 6.1v12.4c0 .3-.4.6-.7.6h-4c-.4 0-.6-.3-.7-.6v-10.7c0-2.2.3-5.3-2.4-5.3-.9 0-1.8.6-2.2 1.6-.5 1.2-.6 2.4-.6 3.7v10.6c0 .4-.3.7-.7.7z" class="st2"/><path id="path14534" d="M122.1 130.5c-.7-1-1.4-1.8-1.4-3.5v-6c0-2.5.2-4.9-1.7-6.6-1.5-1.4-3.9-1.9-5.8-1.9-3.6 0-7.7 1.4-8.6 5.9-.1.5.3.7.6.8l3.7.4c.3 0 .6-.4.7-.7.3-1.6 1.6-2.3 3.1-2.3.8 0 1.7.3 2.2 1 .5.8.5 1.9.5 2.8v.5c-2.2.2-5.1.4-7.2 1.3-2.4 1-4.1 3.2-4.1 6.3 0 4 2.5 6 5.7 6 2.7 0 4.2-.6 6.3-2.8.7 1 .9 1.5 2.2 2.6.3.2.7.1.9-.1.8-.7 2.2-1.9 2.9-2.5.3-.5.3-.9 0-1.2zm-6.8-5.8c0 1.5 0 2.7-.7 4.1-.6 1.1-1.6 1.7-2.7 1.7-1.5 0-2.3-1.1-2.3-2.8 0-3.3 2.9-3.9 5.7-3.9z" class="st2"/><path id="path14536" d="M71.9 130.5c-.7-1-1.4-1.8-1.4-3.5v-6c0-2.5.2-4.9-1.7-6.6-1.5-1.4-3.9-1.9-5.8-1.9-3.6 0-7.7 1.4-8.6 5.9-.1.5.3.7.6.8l3.7.4c.3 0 .6-.4.7-.7.3-1.6 1.6-2.3 3.1-2.3.8 0 1.7.3 2.2 1 .5.8.5 1.9.5 2.8v.5c-2.2.2-5.1.4-7.2 1.3-2.4 1-4.1 3.2-4.1 6.3 0 4 2.5 6 5.7 6 2.7 0 4.2-.6 6.3-2.8.7 1 .9 1.5 2.2 2.6.3.2.7.1.9-.1.8-.7 2.2-1.9 2.9-2.5.3-.5.3-.9 0-1.2zm-6.8-5.8c0 1.5 0 2.7-.7 4.1-.6 1.1-1.6 1.7-2.7 1.7-1.5 0-2.3-1.1-2.3-2.8 0-3.3 2.9-3.9 5.7-3.9z" class="st2"/></g></g></g></g></svg>